<?xml version="1.0" encoding="UTF-8"?>
<svg id="_Слой_1" data-name="Слой 1" xmlns="http://www.w3.org/2000/svg" viewBox="0 0 989 989">
  <defs>
    <style>
      .cls-1 {
        fill: #fff;
      }

      .cls-2 {
        stroke-width: 14px;
      }

      .cls-2, .cls-3 {
        fill: none;
        stroke: #000;
        stroke-linejoin: bevel;
      }

      .cls-3 {
        stroke-width: 6px;
      }
    </style>
  </defs>
  <polyline class="cls-2" points="378.36 668.05 378.36 156.5 713.67 216.53 713.67 673.19"/>
  <polyline class="cls-2" points="378.36 234.97 204.7 303.57 204.7 672.33"/>
  <line class="cls-2" x1="118.58" y1="671.91" x2="799" y2="671.91"/>
  <rect class="cls-2" x="422.09" y="263.7" width="60.03" height="60.03"/>
  <rect class="cls-2" x="609.05" y="263.7" width="60.03" height="60.03"/>
  <rect class="cls-2" x="515.57" y="263.7" width="60.03" height="60.03"/>
  <rect class="cls-2" x="422.09" y="358.89" width="60.03" height="60.03"/>
  <rect class="cls-2" x="609.05" y="358.89" width="60.03" height="60.03"/>
  <rect class="cls-2" x="515.57" y="358.89" width="60.03" height="60.03"/>
  <rect class="cls-2" x="422.95" y="454.08" width="60.03" height="60.03"/>
  <rect class="cls-2" x="609.9" y="454.08" width="60.03" height="60.03"/>
  <rect class="cls-2" x="516.43" y="454.08" width="60.03" height="60.03"/>
  <rect class="cls-2" x="422.95" y="549.27" width="60.03" height="60.03"/>
  <rect class="cls-2" x="609.9" y="549.27" width="60.03" height="60.03"/>
  <rect class="cls-2" x="516.43" y="549.27" width="60.03" height="60.03"/>
  <rect class="cls-2" x="266.87" y="352.03" width="60.03" height="60.03"/>
  <rect class="cls-2" x="267.73" y="447.22" width="60.03" height="60.03"/>
  <rect class="cls-2" x="267.73" y="542.41" width="60.03" height="60.03"/>
  <g>
    <circle class="cls-1" cx="689.5" cy="673.5" r="164.5"/>
    <path d="M689.5,517c86.43,0,156.5,70.07,156.5,156.5s-70.07,156.5-156.5,156.5-156.5-70.07-156.5-156.5,70.07-156.5,156.5-156.5m0-16c-23.28,0-45.87,4.56-67.15,13.56-20.54,8.69-38.99,21.12-54.83,36.96-15.84,15.84-28.27,34.28-36.96,54.83-9,21.28-13.56,43.87-13.56,67.15s4.56,45.87,13.56,67.15c8.69,20.54,21.12,38.99,36.96,54.83,15.84,15.84,34.28,28.27,54.83,36.96,21.28,9,43.87,13.56,67.15,13.56s45.87-4.56,67.15-13.56c20.54-8.69,38.99-21.12,54.83-36.96,15.84-15.84,28.27-34.28,36.96-54.83,9-21.28,13.56-43.87,13.56-67.15s-4.56-45.87-13.56-67.15c-8.69-20.54-21.12-38.99-36.96-54.83-15.84-15.84-34.28-28.27-54.83-36.96-21.28-9-43.87-13.56-67.15-13.56h0Z"/>
  </g>
  <polyline class="cls-2" points="733.93 655.57 579.45 655.57 591.02 732.85 730 732.85 769.26 596.18 813.13 596.18"/>
  <circle class="cls-2" cx="713.72" cy="767.03" r="17.28"/>
  <circle class="cls-2" cx="612.39" cy="767.03" r="17.28"/>
  <g>
    <line class="cls-3" x1="724.82" y1="678.5" x2="597.71" y2="678.5"/>
    <line class="cls-3" x1="719.8" y1="696.6" x2="601.53" y2="696.6"/>
    <line class="cls-3" x1="714.78" y1="714.69" x2="605.36" y2="714.69"/>
  </g>
  <path d="M494.5,37c252.67,0,457.5,204.83,457.5,457.5s-204.83,457.5-457.5,457.5S37,747.17,37,494.5,241.83,37,494.5,37m0-37c-66.74,0-131.5,13.08-192.49,38.88-58.89,24.91-111.77,60.56-157.17,105.96-45.4,45.4-81.05,98.28-105.96,157.17C13.08,363,0,427.76,0,494.5s13.08,131.5,38.88,192.49c24.91,58.89,60.56,111.77,105.96,157.17,45.4,45.4,98.28,81.05,157.17,105.96,60.99,25.8,125.75,38.88,192.49,38.88s131.5-13.08,192.49-38.88c58.89-24.91,111.77-60.56,157.17-105.96,45.4-45.4,81.05-98.28,105.96-157.17,25.8-60.99,38.88-125.75,38.88-192.49s-13.08-131.5-38.88-192.49c-24.91-58.89-60.56-111.77-105.96-157.17-45.4-45.4-98.28-81.05-157.17-105.96C626,13.08,561.24,0,494.5,0h0Z"/>
</svg>